Radley-Italic.ufo
<glyph name="exclam" format="1">
  <advance width="566"/>
  <unicode hex="0021"/>
  <outline>
    <contour>
      <point x="300" y="149" type="curve" smooth="yes"/>
      <point x="300" y="63"/>
      <point x="208" y="0"/>
      <point x="127" y="0" type="curve" smooth="yes"/>
      <point x="73" y="0"/>
      <point x="30" y="27"/>
      <point x="30" y="100" type="curve" smooth="yes"/>
      <point x="30" y="190"/>
      <point x="121" y="252"/>
      <point x="199" y="252" type="curve" smooth="yes"/>
      <point x="255" y="252"/>
      <point x="300" y="223"/>
    </contour>
    <contour>
      <point x="238" y="433" type="line"/>
      <point x="211" y="433" type="line"/>
      <point x="290" y="1082" type="line" smooth="yes"/>
      <point x="296" y="1133"/>
      <point x="348" y="1236"/>
      <point x="442" y="1236" type="curve" smooth="yes"/>
      <point x="504" y="1236"/>
      <point x="519" y="1202"/>
      <point x="519" y="1159" type="curve" smooth="yes"/>
      <point x="519" y="1135"/>
      <point x="515" y="1110"/>
      <point x="507" y="1090" type="curve" smooth="yes"/>
    </contour>
  </outline>
</glyph>
<glyph name="quotesingle" format="1">
  <advance width="433"/>
  <unicode hex="0027"/>
  <outline>
    <contour>
      <point x="186" y="769" type="curve"/>
      <point x="186" y="768" type="line"/>
      <point x="178" y="772"/>
      <point x="168" y="805"/>
      <point x="168" y="871" type="curve" smooth="yes"/>
      <point x="168" y="988"/>
      <point x="192" y="1157"/>
      <point x="201" y="1196" type="curve" smooth="yes"/>
      <point x="213" y="1253"/>
      <point x="251" y="1285"/>
      <point x="308" y="1285" type="curve" smooth="yes"/>
      <point x="355" y="1285"/>
      <point x="374" y="1266"/>
      <point x="374" y="1230" type="curve" smooth="yes"/>
      <point x="374" y="1204"/>
      <point x="247" y="783"/>
    </contour>
  </outline>
</glyph>
<glyph name="slash" format="1">
  <advance width="673"/>
  <unicode hex="002F"/>
  <outline>
    <contour>
      <point x="947" y="1378" type="curve"/>
      <point x="927" y="1395"/>
      <point x="902" y="1402"/>
      <point x="873" y="1402" type="curve"/>
      <point x="805" y="1370"/>
      <point x="711" y="1160"/>
      <point x="669" y="1089" type="curve" smooth="yes"/>
      <point x="92" y="109" type="line" smooth="yes"/>
      <point x="67" y="67"/>
      <point x="45" y="24"/>
      <point x="35" y="-21" type="curve" smooth="yes"/>
      <point x="32" y="-37"/>
      <point x="29" y="-54"/>
      <point x="30" y="-70" type="curve"/>
      <point x="58" y="-70" type="line" smooth="yes"/>
      <point x="74" y="-70"/>
      <point x="90" y="-69"/>
      <point x="107" y="-65" type="curve"/>
      <point x="140" y="-15"/>
      <point x="172" y="37"/>
      <point x="201" y="89" type="curve" smooth="yes"/>
      <point x="433" y="507"/>
      <point x="744" y="965"/>
    </contour>
  </outline>
</glyph>
<glyph name="zero" format="1">
  <advance width="1062"/>
  <unicode hex="0030"/>
  <outline>
    <contour>
      <point x="492" y="76" type="curve" smooth="yes"/>
      <point x="677" y="76"/>
      <point x="820" y="303"/>
      <point x="820" y="531" type="curve" smooth="yes"/>
      <point x="820" y="686"/>
      <point x="729" y="795"/>
      <point x="586" y="795" type="curve" smooth="yes"/>
      <point x="402" y="795"/>
      <point x="264" y="570"/>
      <point x="264" y="366" type="curve" smooth="yes"/>
      <point x="264" y="216"/>
      <point x="344" y="76"/>
    </contour>
    <contour>
      <point x="97" y="363" type="curve" smooth="yes"/>
      <point x="97" y="623"/>
      <point x="299" y="891"/>
      <point x="596" y="891" type="curve" smooth="yes"/>
      <point x="848" y="891"/>
      <point x="995" y="717"/>
      <point x="995" y="504" type="curve" smooth="yes"/>
      <point x="995" y="230"/>
      <point x="772" y="-19"/>
      <point x="489" y="-19" type="curve" smooth="yes"/>
      <point x="254" y="-19"/>
      <point x="97" y="141"/>
    </contour>
  </outline>
</glyph>
<glyph name="one" format="1">
  <advance width="618"/>
  <unicode hex="0031"/>
  <outline>
    <contour>
      <point x="493" y="891" type="line"/>
      <point x="344" y="193" type="line" smooth="yes"/>
      <point x="342" y="183"/>
      <point x="341" y="174"/>
      <point x="341" y="165" type="curve" smooth="yes"/>
      <point x="341" y="92"/>
      <point x="409" y="73"/>
      <point x="472" y="70" type="curve"/>
      <point x="459" y="0" type="line"/>
      <point x="6" y="0" type="line"/>
      <point x="25" y="68" type="line"/>
      <point x="96" y="69"/>
      <point x="174" y="82"/>
      <point x="200" y="203" type="curve" smooth="yes"/>
      <point x="305" y="697" type="line" smooth="yes"/>
      <point x="307" y="708"/>
      <point x="309" y="718"/>
      <point x="309" y="725" type="curve" smooth="yes"/>
      <point x="309" y="757"/>
      <point x="282" y="760"/>
      <point x="168" y="760" type="curve"/>
      <point x="183" y="831" type="line"/>
      <point x="441" y="891" type="line"/>
    </contour>
  </outline>
</glyph>
<glyph name="three" format="1">
  <advance width="765"/>
  <unicode hex="0033"/>
  <outline>
    <contour>
      <point x="112" y="-173" type="curve"/>
      <point x="125" y="-175"/>
      <point x="147" y="-176"/>
      <point x="160" y="-176" type="curve" smooth="yes"/>
      <point x="326" y="-176"/>
      <point x="423" y="-42"/>
      <point x="423" y="92" type="curve" smooth="yes"/>
      <point x="423" y="200"/>
      <point x="362" y="308"/>
      <point x="226" y="350" type="curve"/>
      <point x="336" y="403"/>
      <point x="516" y="522"/>
      <point x="516" y="663" type="curve" smooth="yes"/>
      <point x="516" y="760"/>
      <point x="460" y="795"/>
      <point x="391" y="795" type="curve" smooth="yes"/>
      <point x="308" y="795"/>
      <point x="205" y="745"/>
      <point x="155" y="695" type="curve" smooth="yes"/>
      <point x="143" y="683"/>
      <point x="129" y="677"/>
      <point x="118" y="677" type="curve" smooth="yes"/>
      <point x="103" y="677"/>
      <point x="91" y="687"/>
      <point x="91" y="704" type="curve" smooth="yes"/>
      <point x="91" y="715"/>
      <point x="96" y="729"/>
      <point x="109" y="744" type="curve" smooth="yes"/>
      <point x="197" y="847"/>
      <point x="303" y="891"/>
      <point x="436" y="891" type="curve" smooth="yes"/>
      <point x="580" y="891"/>
      <point x="683" y="816"/>
      <point x="683" y="701" type="curve" smooth="yes"/>
      <point x="683" y="591"/>
      <point x="581" y="478"/>
      <point x="387" y="375" type="curve"/>
      <point x="537" y="307"/>
      <point x="593" y="214"/>
      <point x="593" y="122" type="curve" smooth="yes"/>
      <point x="593" y="-65"/>
      <point x="384" y="-249"/>
      <point x="119" y="-249" type="curve" smooth="yes"/>
      <point x="-68" y="-249"/>
      <point x="-122" y="-185"/>
      <point x="-122" y="-144" type="curve" smooth="yes"/>
      <point x="-122" y="-103"/>
      <point x="-91" y="-68"/>
      <point x="-45" y="-68" type="curve" smooth="yes"/>
      <point x="2" y="-68"/>
      <point x="29" y="-80"/>
    </contour>
  </outline>
</glyph>
<glyph name="four" format="1">
  <advance width="1005"/>
  <unicode hex="0034"/>
  <outline>
    <contour>
      <point x="119" y="185" type="line"/>
      <point x="512" y="185" type="line"/>
      <point x="645" y="740" type="line"/>
    </contour>
    <contour>
      <point x="649" y="82" type="line"/>
      <point x="579" y="-248" type="line"/>
      <point x="415" y="-248" type="line"/>
      <point x="489" y="82" type="line"/>
      <point x="65" y="81" type="line" smooth="yes"/>
      <point x="11" y="81"/>
      <point x="-4" y="101"/>
      <point x="-4" y="120" type="curve" smooth="yes"/>
      <point x="-4" y="136"/>
      <point x="6" y="158"/>
      <point x="30" y="184" type="curve" smooth="yes"/>
      <point x="618" y="810" type="line" smooth="yes"/>
      <point x="671" y="866"/>
      <point x="669" y="872"/>
      <point x="725" y="872" type="curve" smooth="yes"/>
      <point x="831" y="872" type="line"/>
      <point x="669" y="186" type="line"/>
      <point x="913" y="186" type="line"/>
      <point x="887" y="82" type="line"/>
    </contour>
  </outline>
</glyph>
<glyph name="six" format="1">
  <advance width="937"/>
  <unicode hex="0036"/>
  <outline>
    <contour>
      <point x="418" y="69" type="curve" smooth="yes"/>
      <point x="572" y="69"/>
      <point x="701" y="314"/>
      <point x="701" y="495" type="curve" smooth="yes"/>
      <point x="701" y="599"/>
      <point x="658" y="683"/>
      <point x="549" y="683" type="curve" smooth="yes"/>
      <point x="385" y="683"/>
      <point x="252" y="442"/>
      <point x="252" y="262" type="curve" smooth="yes"/>
      <point x="252" y="154"/>
      <point x="300" y="69"/>
    </contour>
    <contour>
      <point x="820" y="1136" type="curve" smooth="yes"/>
      <point x="581" y="1010"/>
      <point x="430" y="858"/>
      <point x="324" y="619" type="curve"/>
      <point x="410" y="738"/>
      <point x="519" y="788"/>
      <point x="617" y="788" type="curve" smooth="yes"/>
      <point x="742" y="788"/>
      <point x="870" y="672"/>
      <point x="870" y="499" type="curve" smooth="yes"/>
      <point x="870" y="244"/>
      <point x="669" y="-19"/>
      <point x="438" y="-19" type="curve" smooth="yes"/>
      <point x="188" y="-19"/>
      <point x="96" y="147"/>
      <point x="96" y="333" type="curve" smooth="yes"/>
      <point x="96" y="696"/>
      <point x="424" y="1115"/>
      <point x="787" y="1209" type="curve" smooth="yes"/>
      <point x="792" y="1210"/>
      <point x="798" y="1211"/>
      <point x="803" y="1211" type="curve" smooth="yes"/>
      <point x="830" y="1211"/>
      <point x="846" y="1194"/>
      <point x="846" y="1175" type="curve" smooth="yes"/>
      <point x="846" y="1160"/>
      <point x="838" y="1146"/>
    </contour>
  </outline>
</glyph>
<glyph name="eight" format="1">
  <advance width="922"/>
  <unicode hex="0038"/>
  <outline>
    <contour>
      <point x="728" y="801" type="curve" smooth="yes"/>
      <point x="728" y="872"/>
      <point x="679" y="933"/>
      <point x="576" y="933" type="curve" smooth="yes"/>
      <point x="416" y="933"/>
      <point x="354" y="845"/>
      <point x="354" y="745" type="curve" smooth="yes"/>
      <point x="354" y="650"/>
      <point x="415" y="545"/>
      <point x="497" y="487" type="curve"/>
      <point x="522" y="501"/>
      <point x="728" y="616"/>
    </contour>
    <contour>
      <point x="605" y="82" type="curve" smooth="yes"/>
      <point x="605" y="185"/>
      <point x="556" y="260"/>
      <point x="445" y="355" type="curve"/>
      <point x="316" y="287"/>
      <point x="187" y="171"/>
      <point x="187" y="8" type="curve" smooth="yes"/>
      <point x="187" y="-92"/>
      <point x="255" y="-145"/>
      <point x="367" y="-145" type="curve" smooth="yes"/>
      <point x="494" y="-145"/>
      <point x="605" y="-30"/>
    </contour>
    <contour>
      <point x="858" y="776" type="curve" smooth="yes"/>
      <point x="858" y="590"/>
      <point x="622" y="458"/>
      <point x="563" y="433" type="curve"/>
      <point x="601" y="395"/>
      <point x="778" y="292"/>
      <point x="778" y="113" type="curve" smooth="yes"/>
      <point x="778" y="-104"/>
      <point x="542" y="-227"/>
      <point x="358" y="-227" type="curve" smooth="yes"/>
      <point x="167" y="-227"/>
      <point x="42" y="-138"/>
      <point x="42" y="-1" type="curve" smooth="yes"/>
      <point x="42" y="235"/>
      <point x="329" y="397"/>
      <point x="375" y="421" type="curve"/>
      <point x="337" y="448"/>
      <point x="201" y="567"/>
      <point x="201" y="721" type="curve" smooth="yes"/>
      <point x="201" y="878"/>
      <point x="366" y="1009"/>
      <point x="584" y="1009" type="curve" smooth="yes"/>
      <point x="763" y="1009"/>
      <point x="858" y="937"/>
    </contour>
  </outline>
</glyph>
<glyph name="nine" format="1">
  <advance width="968"/>
  <unicode hex="0039"/>
  <outline>
    <contour>
      <point x="547" y="803" type="curve" smooth="yes"/>
      <point x="393" y="803"/>
      <point x="265" y="558"/>
      <point x="265" y="377" type="curve" smooth="yes"/>
      <point x="265" y="273"/>
      <point x="308" y="189"/>
      <point x="416" y="189" type="curve" smooth="yes"/>
      <point x="580" y="189"/>
      <point x="714" y="430"/>
      <point x="714" y="610" type="curve" smooth="yes"/>
      <point x="714" y="718"/>
      <point x="666" y="803"/>
    </contour>
    <contour>
      <point x="145" y="-264" type="curve" smooth="yes"/>
      <point x="383" y="-138"/>
      <point x="536" y="14"/>
      <point x="641" y="252" type="curve"/>
      <point x="554" y="134"/>
      <point x="447" y="84"/>
      <point x="348" y="84" type="curve" smooth="yes"/>
      <point x="224" y="84"/>
      <point x="96" y="200"/>
      <point x="96" y="373" type="curve" smooth="yes"/>
      <point x="96" y="628"/>
      <point x="297" y="891"/>
      <point x="528" y="891" type="curve" smooth="yes"/>
      <point x="777" y="891"/>
      <point x="870" y="725"/>
      <point x="870" y="539" type="curve" smooth="yes"/>
      <point x="870" y="176"/>
      <point x="541" y="-243"/>
      <point x="177" y="-337" type="curve" smooth="yes"/>
      <point x="172" y="-338"/>
      <point x="166" y="-339"/>
      <point x="162" y="-339" type="curve" smooth="yes"/>
      <point x="135" y="-339"/>
      <point x="119" y="-322"/>
      <point x="119" y="-303" type="curve" smooth="yes"/>
      <point x="119" y="-288"/>
      <point x="127" y="-274"/>
    </contour>
  </outline>
</glyph>
<glyph name="colon" format="1">
  <advance width="578"/>
  <unicode hex="003A"/>
  <outline>
    <contour>
      <point x="93" y="150" type="curve" smooth="yes"/>
      <point x="93" y="241"/>
      <point x="157" y="284"/>
      <point x="221" y="284" type="curve" smooth="yes"/>
      <point x="287" y="284"/>
      <point x="350" y="241"/>
      <point x="350" y="150" type="curve" smooth="yes"/>
      <point x="350" y="60"/>
      <point x="287" y="17"/>
      <point x="221" y="17" type="curve" smooth="yes"/>
      <point x="157" y="17"/>
      <point x="93" y="60"/>
    </contour>
    <contour>
      <point x="196" y="775" type="curve" smooth="yes"/>
      <point x="196" y="866"/>
      <point x="260" y="909"/>
      <point x="324" y="909" type="curve" smooth="yes"/>
      <point x="390" y="909"/>
      <point x="453" y="866"/>
      <point x="453" y="775" type="curve" smooth="yes"/>
      <point x="453" y="685"/>
      <point x="390" y="642"/>
      <point x="324" y="642" type="curve" smooth="yes"/>
      <point x="260" y="642"/>
      <point x="196" y="685"/>
    </contour>
  </outline>
</glyph>
<glyph name="semicolon" format="1">
  <advance width="593"/>
  <unicode hex="003B"/>
  <outline>
    <contour>
      <point x="221" y="775" type="curve" smooth="yes"/>
      <point x="221" y="866"/>
      <point x="285" y="909"/>
      <point x="349" y="909" type="curve" smooth="yes"/>
      <point x="415" y="909"/>
      <point x="478" y="866"/>
      <point x="478" y="775" type="curve" smooth="yes"/>
      <point x="478" y="685"/>
      <point x="415" y="642"/>
      <point x="349" y="642" type="curve" smooth="yes"/>
      <point x="285" y="642"/>
      <point x="221" y="685"/>
    </contour>
    <contour>
      <point x="101" y="-212" type="line"/>
      <point x="30" y="-116" type="line"/>
      <point x="51" y="-101" type="line" smooth="yes"/>
      <point x="126" y="-48"/>
      <point x="177" y="-31"/>
      <point x="177" y="44" type="curve" smooth="yes"/>
      <point x="177" y="85"/>
      <point x="124" y="166"/>
      <point x="124" y="209" type="curve" smooth="yes"/>
      <point x="124" y="254"/>
      <point x="169" y="297"/>
      <point x="230" y="297" type="curve" smooth="yes"/>
      <point x="313" y="297"/>
      <point x="374" y="226"/>
      <point x="374" y="124" type="curve" smooth="yes"/>
      <point x="374" y="-5"/>
      <point x="247" y="-130"/>
      <point x="131" y="-195" type="curve" smooth="yes"/>
    </contour>
  </outline>
</glyph>
<glyph name="less" format="1">
  <advance width="629"/>
  <unicode hex="003C"/>
  <outline>
    <contour>
      <point x="159" y="556" type="curve"/>
      <point x="197" y="486"/>
      <point x="391" y="161"/>
      <point x="391" y="79" type="curve" smooth="yes"/>
      <point x="391" y="56"/>
      <point x="371" y="35"/>
      <point x="351" y="35" type="curve" smooth="yes"/>
      <point x="320" y="35"/>
      <point x="313" y="40"/>
      <point x="301" y="66" type="curve" smooth="yes"/>
      <point x="70" y="549" type="line"/>
      <point x="186" y="671"/>
      <point x="431" y="1050"/>
      <point x="567" y="1050" type="curve" smooth="yes"/>
      <point x="592" y="1050"/>
      <point x="606" y="1035"/>
      <point x="606" y="1018" type="curve" smooth="yes"/>
      <point x="606" y="1015" type="line" smooth="yes"/>
      <point x="502" y="860"/>
      <point x="297" y="694"/>
    </contour>
  </outline>
</glyph>
<glyph name="F" format="1">
  <advance width="1064"/>
  <unicode hex="0046"/>
  <outline>
    <contour>
      <point x="549" y="1264" type="move" name="top"/>
    </contour>
    <contour>
      <point x="321" y="165" type="curve" smooth="yes"/>
      <point x="321" y="305"/>
      <point x="379" y="445"/>
      <point x="409" y="581" type="curve"/>
      <point x="757" y="581" type="line" smooth="yes"/>
      <point x="833" y="581"/>
      <point x="852" y="477"/>
      <point x="858" y="419" type="curve"/>
      <point x="914" y="419" type="line"/>
      <point x="1007" y="768" type="line"/>
      <point x="940" y="768" type="line" smooth="yes"/>
      <point x="910" y="768"/>
      <point x="869" y="646"/>
      <point x="764" y="646" type="curve" smooth="yes"/>
      <point x="425" y="646" type="line"/>
      <point x="530" y="1110" type="line" smooth="yes"/>
      <point x="539" y="1149"/>
      <point x="559" y="1190"/>
      <point x="605" y="1190" type="curve" smooth="yes"/>
      <point x="892" y="1190" type="line" smooth="yes"/>
      <point x="1017" y="1190"/>
      <point x="1035" y="1050"/>
      <point x="1058" y="957" type="curve"/>
      <point x="1069" y="947"/>
      <point x="1085" y="939"/>
      <point x="1100" y="939" type="curve" smooth="yes"/>
      <point x="1122" y="939"/>
      <point x="1143" y="951"/>
      <point x="1159" y="965" type="curve"/>
      <point x="1159" y="1264" type="line"/>
      <point x="223" y="1264" type="line"/>
      <point x="211" y="1252"/>
      <point x="208" y="1235"/>
      <point x="208" y="1219" type="curve" smooth="yes"/>
      <point x="208" y="1209"/>
      <point x="211" y="1199"/>
      <point x="213" y="1190" type="curve"/>
      <point x="280" y="1186"/>
      <point x="354" y="1182"/>
      <point x="354" y="1095" type="curve" smooth="yes"/>
      <point x="354" y="883"/>
      <point x="215" y="443"/>
      <point x="160" y="216" type="curve" smooth="yes"/>
      <point x="133" y="106"/>
      <point x="70" y="75"/>
      <point x="-38" y="75" type="curve"/>
      <point x="-51" y="60"/>
      <point x="-60" y="39"/>
      <point x="-60" y="19" type="curve"/>
      <point x="-52" y="0" type="line"/>
      <point x="476" y="0" type="line"/>
      <point x="487" y="12"/>
      <point x="490" y="29"/>
      <point x="490" y="45" type="curve" smooth="yes"/>
      <point x="490" y="54"/>
      <point x="487" y="65"/>
      <point x="486" y="74" type="curve"/>
      <point x="430" y="76"/>
      <point x="321" y="89"/>
    </contour>
  </outline>
</glyph>
<glyph name="X" format="1">
  <advance width="1266"/>
  <unicode hex="0058"/>
  <outline>
    <contour>
      <point x="634" y="1264" type="move" name="top"/>
    </contour>
    <contour>
      <point x="-114" y="19" type="curve"/>
      <point x="-116" y="20" type="line"/>
      <point x="-116" y="40"/>
      <point x="-107" y="61"/>
      <point x="-94" y="76" type="curve"/>
      <point x="27" y="76"/>
      <point x="103" y="132"/>
      <point x="183" y="217" type="curve" smooth="yes"/>
      <point x="588" y="650" type="line"/>
      <point x="363" y="1047" type="line" smooth="yes"/>
      <point x="308" y="1144"/>
      <point x="262" y="1188"/>
      <point x="148" y="1188" type="curve"/>
      <point x="136" y="1203"/>
      <point x="127" y="1224"/>
      <point x="127" y="1244" type="curve" smooth="yes"/>
      <point x="127" y="1244"/>
      <point x="127" y="1264"/>
      <point x="134" y="1264" type="curve" smooth="yes"/>
      <point x="651" y="1264" type="line"/>
      <point x="663" y="1254"/>
      <point x="666" y="1233"/>
      <point x="666" y="1219" type="curve" smooth="yes"/>
      <point x="666" y="1209"/>
      <point x="665" y="1198"/>
      <point x="661" y="1189" type="curve"/>
      <point x="612" y="1187"/>
      <point x="508" y="1174"/>
      <point x="508" y="1107" type="curve" smooth="yes"/>
      <point x="508" y="1060"/>
      <point x="665" y="811"/>
      <point x="694" y="760" type="curve"/>
      <point x="743" y="811"/>
      <point x="1005" y="1047"/>
      <point x="1005" y="1107" type="curve" smooth="yes"/>
      <point x="1005" y="1158"/>
      <point x="932" y="1186"/>
      <point x="890" y="1189" type="curve"/>
      <point x="887" y="1199"/>
      <point x="886" y="1209"/>
      <point x="886" y="1219" type="curve" smooth="yes"/>
      <point x="886" y="1233"/>
      <point x="889" y="1254"/>
      <point x="901" y="1264" type="curve"/>
      <point x="1376" y="1264" type="line" smooth="yes"/>
      <point x="1384" y="1264"/>
      <point x="1384" y="1246"/>
      <point x="1384" y="1244" type="curve" smooth="yes"/>
      <point x="1384" y="1224"/>
      <point x="1375" y="1203"/>
      <point x="1363" y="1187" type="curve"/>
      <point x="1247" y="1187"/>
      <point x="1172" y="1128"/>
      <point x="1096" y="1047" type="curve" smooth="yes"/>
      <point x="743" y="673" type="line"/>
      <point x="996" y="217" type="line" smooth="yes"/>
      <point x="1051" y="119"/>
      <point x="1096" y="76"/>
      <point x="1211" y="76" type="curve"/>
      <point x="1223" y="61"/>
      <point x="1232" y="40"/>
      <point x="1232" y="20" type="curve"/>
      <point x="1230" y="19" type="line"/>
      <point x="1230" y="18"/>
      <point x="1230" y="0"/>
      <point x="1223" y="0" type="curve" smooth="yes"/>
      <point x="706" y="0" type="line"/>
      <point x="694" y="10"/>
      <point x="691" y="31"/>
      <point x="691" y="45" type="curve" smooth="yes"/>
      <point x="691" y="55"/>
      <point x="692" y="65"/>
      <point x="695" y="74" type="curve"/>
      <point x="744" y="76"/>
      <point x="848" y="93"/>
      <point x="848" y="158" type="curve" smooth="yes"/>
      <point x="848" y="206"/>
      <point x="670" y="504"/>
      <point x="638" y="561" type="curve"/>
      <point x="593" y="511"/>
      <point x="285" y="203"/>
      <point x="285" y="151" type="curve" smooth="yes"/>
      <point x="285" y="87"/>
      <point x="396" y="74"/>
      <point x="441" y="74" type="curve"/>
      <point x="444" y="65"/>
      <point x="445" y="55"/>
      <point x="445" y="45" type="curve" smooth="yes"/>
      <point x="445" y="31"/>
      <point x="442" y="10"/>
      <point x="430" y="0" type="curve"/>
      <point x="-107" y="0" type="line" smooth="yes"/>
      <point x="-114" y="0"/>
      <point x="-114" y="18"/>
    </contour>
  </outline>
</glyph>
<glyph name="Y" format="1">
  <advance width="1119"/>
  <unicode hex="0059"/>
  <outline>
    <contour>
      <point x="652" y="1264" type="move" name="top"/>
    </contour>
    <contour>
      <point x="1276" y="1264" type="line"/>
      <point x="1281" y="1254"/>
      <point x="1283" y="1241"/>
      <point x="1283" y="1230" type="curve" smooth="yes"/>
      <point x="1283" y="1215"/>
      <point x="1279" y="1196"/>
      <point x="1268" y="1186" type="curve"/>
      <point x="1169" y="1186"/>
      <point x="1095" y="1129"/>
      <point x="1036" y="1053" type="curve" smooth="yes"/>
      <point x="571" y="455" type="line"/>
      <point x="554" y="366"/>
      <point x="518" y="256"/>
      <point x="518" y="166" type="curve" smooth="yes"/>
      <point x="518" y="79"/>
      <point x="610" y="77"/>
      <point x="675" y="74" type="curve"/>
      <point x="678" y="65"/>
      <point x="679" y="55"/>
      <point x="679" y="45" type="curve" smooth="yes"/>
      <point x="679" y="30"/>
      <point x="676" y="10"/>
      <point x="664" y="0" type="curve"/>
      <point x="152" y="0" type="line" smooth="yes"/>
      <point x="144" y="0"/>
      <point x="144" y="17"/>
      <point x="144" y="19" type="curve" smooth="yes"/>
      <point x="144" y="39"/>
      <point x="153" y="60"/>
      <point x="165" y="75" type="curve"/>
      <point x="389" y="75"/>
      <point x="362" y="254"/>
      <point x="396" y="443" type="curve"/>
      <point x="225" y="1068" type="line" smooth="yes"/>
      <point x="196" y="1173"/>
      <point x="132" y="1188"/>
      <point x="30" y="1188" type="curve" smooth="yes"/>
      <point x="22" y="1188"/>
      <point x="22" y="1205"/>
      <point x="22" y="1208" type="curve" smooth="yes"/>
      <point x="22" y="1227"/>
      <point x="28" y="1247"/>
      <point x="36" y="1264" type="curve"/>
      <point x="533" y="1264" type="line"/>
      <point x="537" y="1254"/>
      <point x="538" y="1243"/>
      <point x="538" y="1233" type="curve" smooth="yes"/>
      <point x="538" y="1219"/>
      <point x="536" y="1199"/>
      <point x="525" y="1188" type="curve"/>
      <point x="455" y="1188"/>
      <point x="375" y="1171"/>
      <point x="375" y="1084" type="curve" smooth="yes"/>
      <point x="375" y="967"/>
      <point x="479" y="671"/>
      <point x="512" y="544" type="curve"/>
      <point x="567" y="618"/>
      <point x="916" y="1039"/>
      <point x="916" y="1121" type="curve" smooth="yes"/>
      <point x="916" y="1219"/>
      <point x="783" y="1161"/>
      <point x="783" y="1209" type="curve" smooth="yes"/>
      <point x="783" y="1228"/>
      <point x="789" y="1247"/>
      <point x="796" y="1264" type="curve"/>
    </contour>
  </outline>
</glyph>
<glyph name="Z" format="1">
  <advance width="1065"/>
  <unicode hex="005A"/>
  <outline>
    <contour>
      <point x="553" y="1264" type="move" name="top"/>
    </contour>
    <contour>
      <point x="553" y="0" type="move" name="bot"/>
    </contour>
    <contour>
      <point x="1115" y="1264" type="line"/>
      <point x="1117" y="1256"/>
      <point x="1118" y="1246"/>
      <point x="1118" y="1238" type="curve" smooth="yes"/>
      <point x="1118" y="1199"/>
      <point x="1105" y="1125"/>
      <point x="1084" y="1092" type="curve" smooth="yes"/>
      <point x="999" y="959"/>
      <point x="303" y="146"/>
      <point x="247" y="75" type="curve"/>
      <point x="597" y="75" type="line" smooth="yes"/>
      <point x="744" y="75"/>
      <point x="811" y="169"/>
      <point x="880" y="296" type="curve" smooth="yes"/>
      <point x="886" y="308"/>
      <point x="903" y="311"/>
      <point x="915" y="311" type="curve" smooth="yes"/>
      <point x="946" y="311"/>
      <point x="978" y="310"/>
      <point x="1009" y="305" type="curve"/>
      <point x="896" y="0" type="line"/>
      <point x="31" y="0" type="line" smooth="yes"/>
      <point x="10" y="0"/>
      <point x="-12" y="39"/>
      <point x="-12" y="65" type="curve" smooth="yes"/>
      <point x="-12" y="71"/>
      <point x="-10" y="77"/>
      <point x="-7" y="81" type="curve" smooth="yes"/>
      <point x="301" y="437"/>
      <point x="597" y="804"/>
      <point x="934" y="1188" type="curve"/>
      <point x="518" y="1188" type="line" smooth="yes"/>
      <point x="372" y="1188"/>
      <point x="304" y="1094"/>
      <point x="236" y="968" type="curve" smooth="yes"/>
      <point x="229" y="956"/>
      <point x="213" y="953"/>
      <point x="201" y="953" type="curve" smooth="yes"/>
      <point x="170" y="953"/>
      <point x="138" y="953"/>
      <point x="107" y="958" type="curve"/>
      <point x="220" y="1264" type="line"/>
    </contour>
  </outline>
</glyph>
<glyph name="bracketleft" format="1">
  <advance width="897"/>
  <unicode hex="005B"/>
  <outline>
    <contour>
      <point x="358" y="1446" type="curve"/>
      <point x="357" y="1446" type="line"/>
      <point x="362" y="1470"/>
      <point x="418" y="1508"/>
      <point x="445" y="1508" type="curve" smooth="yes"/>
      <point x="597" y="1508"/>
      <point x="750" y="1513"/>
      <point x="902" y="1513" type="curve" smooth="yes"/>
      <point x="942" y="1513"/>
      <point x="970" y="1498"/>
      <point x="970" y="1472" type="curve" smooth="yes"/>
      <point x="970" y="1418"/>
      <point x="921" y="1398"/>
      <point x="875" y="1398" type="curve" smooth="yes"/>
      <point x="469" y="1398" type="line"/>
      <point x="408" y="1111"/>
      <point x="330" y="825"/>
      <point x="269" y="536" type="curve" smooth="yes"/>
      <point x="226" y="331"/>
      <point x="186" y="127"/>
      <point x="145" y="-78" type="curve"/>
      <point x="166" y="-78" type="line" smooth="yes"/>
      <point x="280" y="-78"/>
      <point x="396" y="-72"/>
      <point x="510" y="-72" type="curve" smooth="yes"/>
      <point x="530" y="-72"/>
      <point x="575" y="-73"/>
      <point x="575" y="-131" type="curve" smooth="yes"/>
      <point x="575" y="-182"/>
      <point x="533" y="-196"/>
      <point x="487" y="-196" type="curve" smooth="yes"/>
      <point x="346" y="-196"/>
      <point x="209" y="-181"/>
      <point x="66" y="-181" type="curve" smooth="yes"/>
      <point x="34" y="-181"/>
      <point x="30" y="-171"/>
      <point x="30" y="-151" type="curve" smooth="yes"/>
      <point x="30" y="-144"/>
      <point x="32" y="-133"/>
      <point x="34" y="-122" type="curve" smooth="yes"/>
      <point x="63" y="14"/>
      <point x="98" y="152"/>
      <point x="127" y="289" type="curve" smooth="yes"/>
      <point x="208" y="675"/>
      <point x="277" y="1060"/>
    </contour>
  </outline>
</glyph>
<glyph name="a" format="1">
  <advance width="1125"/>
  <unicode hex="0061"/>
  <outline>
    <contour>
      <point x="550" y="872" type="move" name="top"/>
    </contour>
    <contour>
      <point x="604" y="0" type="move" name="bot"/>
    </contour>
    <contour>
      <point x="550" y="797" type="curve" smooth="yes"/>
      <point x="422" y="797"/>
      <point x="238" y="603"/>
      <point x="238" y="347" type="curve" smooth="yes"/>
      <point x="238" y="178"/>
      <point x="300" y="91"/>
      <point x="390" y="91" type="curve" smooth="yes"/>
      <point x="562" y="91"/>
      <point x="734" y="371"/>
      <point x="734" y="583" type="curve" smooth="yes"/>
      <point x="734" y="694"/>
      <point x="653" y="797"/>
    </contour>
    <contour>
      <point x="1137" y="264" type="line"/>
      <point x="1072" y="167"/>
      <point x="937" y="-21"/>
      <point x="794" y="-21" type="curve" smooth="yes"/>
      <point x="772" y="-21"/>
      <point x="677" y="-4"/>
      <point x="677" y="156" type="curve" smooth="yes"/>
      <point x="677" y="166"/>
      <point x="677" y="174"/>
      <point x="690" y="263" type="curve"/>
      <point x="621" y="106"/>
      <point x="513" y="-19"/>
      <point x="337" y="-19" type="curve" smooth="yes"/>
      <point x="201" y="-19"/>
      <point x="71" y="82"/>
      <point x="71" y="322" type="curve" smooth="yes"/>
      <point x="71" y="609"/>
      <point x="276" y="891"/>
      <point x="535" y="891" type="curve" smooth="yes"/>
      <point x="707" y="891"/>
      <point x="771" y="762"/>
      <point x="777" y="689" type="curve"/>
      <point x="817" y="820" type="line"/>
      <point x="826" y="846"/>
      <point x="841" y="864"/>
      <point x="872" y="864" type="curve" smooth="yes"/>
      <point x="919" y="864"/>
      <point x="956" y="833"/>
      <point x="956" y="795" type="curve" smooth="yes"/>
      <point x="956" y="788"/>
      <point x="953" y="777"/>
      <point x="951" y="769" type="curve" smooth="yes"/>
      <point x="859" y="470" type="line" smooth="yes"/>
      <point x="829" y="374"/>
      <point x="801" y="273"/>
      <point x="801" y="201" type="curve" smooth="yes"/>
      <point x="801" y="153"/>
      <point x="816" y="107"/>
      <point x="863" y="107" type="curve" smooth="yes"/>
      <point x="941" y="107"/>
      <point x="1047" y="265"/>
      <point x="1083" y="310" type="curve"/>
    </contour>
  </outline>
</glyph>
<glyph name="o" format="1">
  <advance width="977"/>
  <unicode hex="006F"/>
  <outline>
    <contour>
      <point x="535" y="872" type="move" name="top"/>
    </contour>
    <contour>
      <point x="490" y="0" type="move" name="bot"/>
    </contour>
    <contour>
      <point x="737" y="526" type="curve" smooth="yes"/>
      <point x="737" y="715"/>
      <point x="656" y="795"/>
      <point x="560" y="795" type="curve" smooth="yes"/>
      <point x="417" y="795"/>
      <point x="239" y="634"/>
      <point x="239" y="361" type="curve" smooth="yes"/>
      <point x="239" y="165"/>
      <point x="327" y="76"/>
      <point x="430" y="76" type="curve" smooth="yes"/>
      <point x="570" y="76"/>
      <point x="737" y="217"/>
    </contour>
    <contour>
      <point x="438" y="-19" type="curve" smooth="yes"/>
      <point x="254" y="-19"/>
      <point x="71" y="101"/>
      <point x="71" y="367" type="curve" smooth="yes"/>
      <point x="71" y="692"/>
      <point x="313" y="891"/>
      <point x="546" y="891" type="curve" smooth="yes"/>
      <point x="724" y="891"/>
      <point x="910" y="775"/>
      <point x="910" y="510" type="curve" smooth="yes"/>
      <point x="910" y="238"/>
      <point x="719" y="-19"/>
    </contour>
  </outline>
</glyph>
<glyph name="p" format="1">
  <advance width="1102"/>
  <unicode hex="0070"/>
  <outline>
    <contour>
      <point x="421" y="-346" type="curve" smooth="yes"/>
      <point x="421" y="-374"/>
      <point x="405" y="-396"/>
      <point x="383" y="-396" type="curve" smooth="yes"/>
      <point x="-84" y="-396" type="line" smooth="yes"/>
      <point x="-99" y="-396"/>
      <point x="-100" y="-393"/>
      <point x="-100" y="-387" type="curve" smooth="yes"/>
      <point x="-100" y="-264"/>
      <point x="65" y="-404"/>
      <point x="113" y="-216" type="curve" smooth="yes"/>
      <point x="338" y="673" type="line"/>
      <point x="230" y="613"/>
      <point x="132" y="540"/>
      <point x="36" y="429" type="curve" smooth="yes"/>
      <point x="31" y="423"/>
      <point x="29" y="423"/>
      <point x="27" y="423" type="curve" smooth="yes"/>
      <point x="10" y="423"/>
      <point x="-23" y="451"/>
      <point x="-23" y="462" type="curve" smooth="yes"/>
      <point x="-23" y="468"/>
      <point x="-16" y="480"/>
      <point x="-13" y="484" type="curve" smooth="yes"/>
      <point x="108" y="646"/>
      <point x="358" y="788"/>
      <point x="358" y="788" type="curve"/>
      <point x="377" y="865" type="line" smooth="yes"/>
      <point x="397" y="945"/>
      <point x="421" y="1033"/>
      <point x="486" y="1033" type="curve" smooth="yes"/>
      <point x="539" y="1033"/>
      <point x="555" y="988"/>
      <point x="555" y="942" type="curve" smooth="yes"/>
      <point x="555" y="916"/>
      <point x="550" y="890"/>
      <point x="544" y="872" type="curve" smooth="yes"/>
      <point x="538" y="855" type="line"/>
      <point x="587" y="874"/>
      <point x="646" y="891"/>
      <point x="697" y="891" type="curve" smooth="yes"/>
      <point x="953" y="891"/>
      <point x="1059" y="757"/>
      <point x="1059" y="594" type="curve" smooth="yes"/>
      <point x="1059" y="331"/>
      <point x="776" y="-19"/>
      <point x="435" y="-19" type="curve" smooth="yes"/>
      <point x="399" y="-19"/>
      <point x="362" y="-15"/>
      <point x="325" y="-7" type="curve"/>
      <point x="267" y="-215" type="line" smooth="yes"/>
      <point x="264" y="-226"/>
      <point x="262" y="-236"/>
      <point x="262" y="-244" type="curve" smooth="yes"/>
      <point x="262" y="-369"/>
      <point x="421" y="-281"/>
    </contour>
    <contour>
      <point x="690" y="784" type="curve" smooth="yes"/>
      <point x="636" y="784"/>
      <point x="516" y="741"/>
      <point x="516" y="741" type="curve"/>
      <point x="345" y="81" type="line"/>
      <point x="377" y="71"/>
      <point x="408" y="66"/>
      <point x="439" y="66" type="curve" smooth="yes"/>
      <point x="680" y="66"/>
      <point x="898" y="361"/>
      <point x="898" y="584" type="curve" smooth="yes"/>
      <point x="898" y="697"/>
      <point x="837" y="784"/>
    </contour>
  </outline>
</glyph>
<glyph name="u" format="1">
  <advance width="1238"/>
  <unicode hex="0075"/>
  <outline>
    <contour>
      <point x="690" y="871" type="move" name="top"/>
    </contour>
    <contour>
      <point x="621" y="0" type="move" name="bot"/>
    </contour>
    <contour>
      <point x="311" y="169" type="curve" smooth="yes"/>
      <point x="311" y="133"/>
      <point x="331" y="103"/>
      <point x="366" y="103" type="curve" smooth="yes"/>
      <point x="459" y="103"/>
      <point x="694" y="506"/>
      <point x="806" y="676" type="curve"/>
      <point x="859" y="752"/>
      <point x="935" y="891"/>
      <point x="1026" y="891" type="curve" smooth="yes"/>
      <point x="1069" y="891"/>
      <point x="1089" y="842"/>
      <point x="1089" y="792" type="curve" smooth="yes"/>
      <point x="1089" y="770"/>
      <point x="1085" y="749"/>
      <point x="1081" y="731" type="curve"/>
      <point x="935" y="240" type="line" smooth="yes"/>
      <point x="930" y="222"/>
      <point x="919" y="183"/>
      <point x="919" y="150" type="curve" smooth="yes"/>
      <point x="919" y="119"/>
      <point x="928" y="91"/>
      <point x="960" y="91" type="curve" smooth="yes"/>
      <point x="1012" y="91"/>
      <point x="1050" y="137"/>
      <point x="1116" y="229" type="curve" smooth="yes"/>
      <point x="1174" y="310" type="line"/>
      <point x="1231" y="264" type="line"/>
      <point x="1174" y="185" type="line"/>
      <point x="1094" y="66"/>
      <point x="1021" y="-19"/>
      <point x="903" y="-19" type="curve" smooth="yes"/>
      <point x="814" y="-19"/>
      <point x="769" y="50"/>
      <point x="769" y="130" type="curve" smooth="yes"/>
      <point x="769" y="273"/>
      <point x="845" y="459"/>
      <point x="892" y="582" type="curve" smooth="yes"/>
      <point x="917" y="648" type="line"/>
      <point x="901" y="656" type="line"/>
      <point x="783" y="462"/>
      <point x="549" y="-19"/>
      <point x="317" y="-19" type="curve" smooth="yes"/>
      <point x="193" y="-19"/>
      <point x="152" y="50"/>
      <point x="152" y="146" type="curve" smooth="yes"/>
      <point x="152" y="342"/>
      <point x="324" y="653"/>
      <point x="324" y="726" type="curve" smooth="yes"/>
      <point x="324" y="755"/>
      <point x="306" y="778"/>
      <point x="274" y="778" type="curve" smooth="yes"/>
      <point x="190" y="778"/>
      <point x="94" y="579"/>
      <point x="65" y="539" type="curve"/>
      <point x="12" y="587" type="line"/>
      <point x="78" y="719"/>
      <point x="207" y="891"/>
      <point x="355" y="891" type="curve" smooth="yes"/>
      <point x="451" y="891"/>
      <point x="484" y="843"/>
      <point x="484" y="770" type="curve" smooth="yes"/>
      <point x="484" y="605"/>
      <point x="311" y="312"/>
    </contour>
  </outline>
</glyph>
<glyph name="x" format="1">
  <advance width="1089"/>
  <unicode hex="0078"/>
  <outline>
    <contour>
      <point x="186" y="131" type="curve" smooth="yes"/>
      <point x="278" y="131"/>
      <point x="403" y="350"/>
      <point x="455" y="438" type="curve"/>
      <point x="437" y="493"/>
      <point x="416" y="561"/>
      <point x="409" y="585" type="curve" smooth="yes"/>
      <point x="394" y="629"/>
      <point x="366" y="789"/>
      <point x="282" y="789" type="curve" smooth="yes"/>
      <point x="168" y="789"/>
      <point x="140" y="629"/>
      <point x="111" y="629" type="curve" smooth="yes"/>
      <point x="86" y="629"/>
      <point x="56" y="657"/>
      <point x="56" y="672" type="curve" smooth="yes"/>
      <point x="56" y="673"/>
      <point x="56" y="674"/>
      <point x="58" y="677" type="curve" smooth="yes"/>
      <point x="125" y="775"/>
      <point x="206" y="891"/>
      <point x="329" y="891" type="curve" smooth="yes"/>
      <point x="497" y="891"/>
      <point x="555" y="580"/>
      <point x="555" y="580" type="curve"/>
      <point x="555" y="580"/>
      <point x="703" y="769"/>
      <point x="734" y="813" type="curve" smooth="yes"/>
      <point x="771" y="858"/>
      <point x="833" y="890"/>
      <point x="895" y="890" type="curve" smooth="yes"/>
      <point x="963" y="890"/>
      <point x="1059" y="855"/>
      <point x="1059" y="774" type="curve" smooth="yes"/>
      <point x="1059" y="740"/>
      <point x="1020" y="714"/>
      <point x="980" y="714" type="curve" smooth="yes"/>
      <point x="941" y="714"/>
      <point x="898" y="740"/>
      <point x="846" y="740" type="curve" smooth="yes"/>
      <point x="808" y="740"/>
      <point x="592" y="480"/>
      <point x="592" y="469" type="curve" smooth="yes"/>
      <point x="592" y="442"/>
      <point x="645" y="285"/>
      <point x="659" y="241" type="curve" smooth="yes"/>
      <point x="678" y="192"/>
      <point x="699" y="96"/>
      <point x="783" y="96" type="curve" smooth="yes"/>
      <point x="882" y="96"/>
      <point x="945" y="195"/>
      <point x="989" y="253" type="curve"/>
      <point x="1034" y="214" type="line"/>
      <point x="1035" y="210"/>
      <point x="1035" y="205"/>
      <point x="1035" y="205" type="curve"/>
      <point x="863" y="-22"/>
      <point x="735" y="-19"/>
      <point x="735" y="-19" type="curve"/>
      <point x="584" y="-20"/>
      <point x="519" y="227"/>
      <point x="491" y="320" type="curve"/>
      <point x="457" y="268"/>
      <point x="345" y="124"/>
      <point x="279" y="55" type="curve"/>
      <point x="239" y="5"/>
      <point x="171" y="-19"/>
      <point x="99" y="-19" type="curve" smooth="yes"/>
      <point x="38" y="-19"/>
      <point x="-30" y="25"/>
      <point x="-30" y="94" type="curve" smooth="yes"/>
      <point x="-30" y="137"/>
      <point x="7" y="163"/>
      <point x="58" y="163" type="curve" smooth="yes"/>
      <point x="96" y="163"/>
      <point x="138" y="131"/>
    </contour>
  </outline>
</glyph>
<glyph name="braceleft" format="1">
  <advance width="658"/>
  <unicode hex="007B"/>
  <outline>
    <contour>
      <point x="214" y="464" type="curve" smooth="yes"/>
      <point x="214" y="592"/>
      <point x="42" y="551"/>
      <point x="42" y="627" type="curve" smooth="yes"/>
      <point x="42" y="640"/>
      <point x="53" y="652"/>
      <point x="61" y="653" type="curve" smooth="yes"/>
      <point x="187" y="669"/>
      <point x="280" y="745"/>
      <point x="306" y="870" type="curve" smooth="yes"/>
      <point x="327" y="969"/>
      <point x="319" y="1063"/>
      <point x="338" y="1156" type="curve" smooth="yes"/>
      <point x="378" y="1357"/>
      <point x="530" y="1463"/>
      <point x="725" y="1481" type="curve"/>
      <point x="724" y="1472"/>
      <point x="726" y="1460"/>
      <point x="719" y="1458" type="curve" smooth="yes"/>
      <point x="610" y="1436"/>
      <point x="512" y="1394"/>
      <point x="486" y="1267" type="curve" smooth="yes"/>
      <point x="464" y="1163"/>
      <point x="484" y="1069"/>
      <point x="464" y="974" type="curve" smooth="yes"/>
      <point x="436" y="805"/>
      <point x="335" y="690"/>
      <point x="203" y="643" type="curve" smooth="yes"/>
      <point x="149" y="628" type="line"/>
      <point x="203" y="611" type="line" smooth="yes"/>
      <point x="282" y="574"/>
      <point x="332" y="493"/>
      <point x="332" y="374" type="curve" smooth="yes"/>
      <point x="332" y="249"/>
      <point x="245" y="133"/>
      <point x="217" y="4" type="curve" smooth="yes"/>
      <point x="213" y="-14"/>
      <point x="212" y="-24"/>
      <point x="212" y="-37" type="curve" smooth="yes"/>
      <point x="212" y="-135"/>
      <point x="300" y="-173"/>
      <point x="378" y="-188" type="curve"/>
      <point x="378" y="-194"/>
      <point x="380" y="-213"/>
      <point x="371" y="-213" type="curve" smooth="yes"/>
      <point x="201" y="-213"/>
      <point x="111" y="-121"/>
      <point x="111" y="26" type="curve" smooth="yes"/>
      <point x="111" y="184"/>
      <point x="214" y="317"/>
    </contour>
  </outline>
</glyph>
<glyph name="asciitilde" format="1">
  <advance width="1082"/>
  <unicode hex="007E"/>
  <outline>
    <contour>
      <point x="914" y="829" type="curve"/>
      <point x="969" y="829" type="line"/>
      <point x="935" y="688"/>
      <point x="852" y="600"/>
      <point x="735" y="600" type="curve" smooth="yes"/>
      <point x="582" y="600"/>
      <point x="453" y="730"/>
      <point x="331" y="730" type="curve" smooth="yes"/>
      <point x="252" y="730"/>
      <point x="202" y="678"/>
      <point x="176" y="613" type="curve"/>
      <point x="120" y="613" type="line"/>
      <point x="163" y="738"/>
      <point x="234" y="834"/>
      <point x="368" y="834" type="curve" smooth="yes"/>
      <point x="501" y="834"/>
      <point x="645" y="701"/>
      <point x="761" y="701" type="curve" smooth="yes"/>
      <point x="848" y="701"/>
      <point x="893" y="757"/>
    </contour>
  </outline>
</glyph>
<glyph name="cent" format="1">
  <advance width="956"/>
  <unicode hex="00A2"/>
  <outline>
    <contour>
      <point x="557" y="841" type="line"/>
      <point x="556" y="840" type="line"/>
      <point x="545" y="843"/>
      <point x="533" y="845"/>
      <point x="520" y="845" type="curve" smooth="yes"/>
      <point x="341" y="845"/>
      <point x="225" y="605"/>
      <point x="225" y="407" type="curve" smooth="yes"/>
      <point x="225" y="277"/>
      <point x="279" y="163"/>
      <point x="404" y="127" type="curve"/>
      <point x="563" y="839" type="line"/>
    </contour>
    <contour>
      <point x="795" y="641" type="curve" smooth="yes"/>
      <point x="733" y="641"/>
      <point x="684" y="745"/>
      <point x="617" y="805" type="curve"/>
      <point x="463" y="119" type="line"/>
      <point x="472" y="119" type="line" smooth="yes"/>
      <point x="640" y="119"/>
      <point x="732" y="224"/>
      <point x="812" y="327" type="curve"/>
      <point x="887" y="268" type="line"/>
      <point x="782" y="120"/>
      <point x="637" y="0"/>
      <point x="443" y="0" type="curve" smooth="yes"/>
      <point x="437" y="0" type="line"/>
      <point x="375" y="-278" type="line" smooth="yes"/>
      <point x="357" y="-356"/>
      <point x="325" y="-368"/>
      <point x="318" y="-368" type="curve"/>
      <point x="318" y="-368"/>
      <point x="305" y="-364"/>
      <point x="305" y="-332" type="curve" smooth="yes"/>
      <point x="305" y="-323"/>
      <point x="306" y="-314"/>
      <point x="309" y="-302" type="curve" smooth="yes"/>
      <point x="378" y="6" type="line"/>
      <point x="192" y="33"/>
      <point x="57" y="205"/>
      <point x="57" y="408" type="curve" smooth="yes"/>
      <point x="57" y="677"/>
      <point x="263" y="911"/>
      <point x="536" y="911" type="curve" smooth="yes"/>
      <point x="549" y="911"/>
      <point x="565" y="909"/>
      <point x="579" y="907" type="curve"/>
      <point x="627" y="1122" type="line" smooth="yes"/>
      <point x="652" y="1233"/>
      <point x="664" y="1246"/>
      <point x="692" y="1246" type="curve" smooth="yes"/>
      <point x="697" y="1246"/>
      <point x="700" y="1243"/>
      <point x="700" y="1218" type="curve" smooth="yes"/>
      <point x="700" y="1198"/>
      <point x="696" y="1168"/>
      <point x="686" y="1123" type="curve" smooth="yes"/>
      <point x="636" y="897" type="line"/>
      <point x="745" y="866"/>
      <point x="867" y="808"/>
      <point x="867" y="706" type="curve" smooth="yes"/>
      <point x="867" y="662"/>
      <point x="845" y="641"/>
    </contour>
  </outline>
</glyph>
<glyph name="sterling" format="1">
  <advance width="1183"/>
  <unicode hex="00A3"/>
  <outline>
    <contour>
      <point x="469" y="214" type="curve"/>
      <point x="592" y="175"/>
      <point x="683" y="95"/>
      <point x="944" y="95" type="curve" smooth="yes"/>
      <point x="971" y="95"/>
      <point x="1009" y="98"/>
      <point x="1009" y="128" type="curve" smooth="yes"/>
      <point x="1009" y="195"/>
      <point x="898" y="219"/>
      <point x="898" y="267" type="curve" smooth="yes"/>
      <point x="898" y="297"/>
      <point x="923" y="320"/>
      <point x="954" y="320" type="curve" smooth="yes"/>
      <point x="1042" y="320"/>
      <point x="1075" y="249"/>
      <point x="1075" y="178" type="curve" smooth="yes"/>
      <point x="1075" y="41"/>
      <point x="952" y="-6"/>
      <point x="805" y="-6" type="curve" smooth="yes"/>
      <point x="615" y="-6"/>
      <point x="535" y="114"/>
      <point x="356" y="114" type="curve" smooth="yes"/>
      <point x="268" y="114"/>
      <point x="156" y="81"/>
      <point x="5" y="-6" type="curve"/>
      <point x="7" y="-4" type="line"/>
      <point x="-14" y="-1"/>
      <point x="-29" y="21"/>
      <point x="-29" y="51" type="curve" smooth="yes"/>
      <point x="-29" y="147"/>
      <point x="254" y="217"/>
      <point x="281" y="222" type="curve"/>
      <point x="292" y="222" type="line"/>
      <point x="326" y="315"/>
      <point x="339" y="408"/>
      <point x="355" y="508" type="curve"/>
      <point x="128" y="508" type="line"/>
      <point x="132" y="538"/>
      <point x="137" y="584"/>
      <point x="147" y="584" type="curve" smooth="yes"/>
      <point x="368" y="584" type="line"/>
      <point x="403" y="827"/>
      <point x="547" y="1237"/>
      <point x="945" y="1237" type="curve" smooth="yes"/>
      <point x="1027" y="1237"/>
      <point x="1138" y="1213"/>
      <point x="1138" y="1126" type="curve" smooth="yes"/>
      <point x="1138" y="1081"/>
      <point x="1125" y="1065"/>
      <point x="1076" y="1065" type="curve" smooth="yes"/>
      <point x="1030" y="1065"/>
      <point x="989" y="1166"/>
      <point x="909" y="1166" type="curve" smooth="yes"/>
      <point x="665" y="1166"/>
      <point x="620" y="804"/>
      <point x="564" y="604" type="curve"/>
      <point x="558" y="582" type="line"/>
      <point x="825" y="582" type="line"/>
      <point x="819" y="542"/>
      <point x="807" y="506"/>
      <point x="790" y="506" type="curve" smooth="yes"/>
      <point x="542" y="506" type="line"/>
      <point x="516" y="406"/>
      <point x="473" y="231"/>
    </contour>
  </outline>
</glyph>
<glyph name="yen" format="1">
  <advance width="1284"/>
  <unicode hex="00A5"/>
  <outline>
    <contour>
      <point x="220" y="336" type="curve" smooth="yes"/>
      <point x="428" y="336" type="line"/>
      <point x="448" y="443" type="line"/>
      <point x="440" y="459" type="line"/>
      <point x="429" y="459" type="line" smooth="yes"/>
      <point x="314" y="459"/>
      <point x="281" y="458"/>
      <point x="256" y="458" type="curve" smooth="yes"/>
      <point x="157" y="458"/>
      <point x="144" y="472"/>
      <point x="144" y="499" type="curve" smooth="yes"/>
      <point x="144" y="512"/>
      <point x="161" y="520"/>
      <point x="352" y="520" type="curve" smooth="yes"/>
      <point x="425" y="520" type="line"/>
      <point x="280" y="1032" type="line" smooth="yes"/>
      <point x="259" y="1107"/>
      <point x="228" y="1147"/>
      <point x="96" y="1147" type="curve" smooth="yes"/>
      <point x="92" y="1147"/>
      <point x="89" y="1147"/>
      <point x="89" y="1166" type="curve" smooth="yes"/>
      <point x="89" y="1189"/>
      <point x="95" y="1217"/>
      <point x="102" y="1217" type="curve" smooth="yes"/>
      <point x="583" y="1217" type="line"/>
      <point x="585" y="1213"/>
      <point x="588" y="1204"/>
      <point x="588" y="1188" type="curve" smooth="yes"/>
      <point x="588" y="1160"/>
      <point x="580" y="1147"/>
      <point x="574" y="1147" type="curve" smooth="yes"/>
      <point x="523" y="1147"/>
      <point x="426" y="1140"/>
      <point x="426" y="1049" type="curve" smooth="yes"/>
      <point x="426" y="1035"/>
      <point x="428" y="1020"/>
      <point x="433" y="1003" type="curve" smooth="yes"/>
      <point x="561" y="549" type="line"/>
      <point x="933" y="1017" type="line"/>
      <point x="948" y="1040"/>
      <point x="960" y="1061"/>
      <point x="960" y="1083" type="curve" smooth="yes"/>
      <point x="960" y="1127"/>
      <point x="932" y="1147"/>
      <point x="836" y="1147" type="curve" smooth="yes"/>
      <point x="832" y="1147"/>
      <point x="829" y="1147"/>
      <point x="829" y="1166" type="curve" smooth="yes"/>
      <point x="829" y="1189"/>
      <point x="835" y="1217"/>
      <point x="842" y="1217" type="curve" smooth="yes"/>
      <point x="1306" y="1217" type="line"/>
      <point x="1308" y="1213"/>
      <point x="1311" y="1204"/>
      <point x="1311" y="1188" type="curve" smooth="yes"/>
      <point x="1311" y="1160"/>
      <point x="1303" y="1147"/>
      <point x="1297" y="1147" type="curve" smooth="yes"/>
      <point x="1232" y="1147"/>
      <point x="1165" y="1125"/>
      <point x="1078" y="1018" type="curve" smooth="yes"/>
      <point x="674" y="520" type="line"/>
      <point x="872" y="520" type="line" smooth="yes"/>
      <point x="904" y="520"/>
      <point x="947" y="508"/>
      <point x="947" y="491" type="curve" smooth="yes"/>
      <point x="947" y="487"/>
      <point x="932" y="460"/>
      <point x="873" y="460" type="curve" smooth="yes"/>
      <point x="621" y="460" type="line"/>
      <point x="597" y="338" type="line"/>
      <point x="860" y="340" type="line" smooth="yes"/>
      <point x="906" y="340"/>
      <point x="912" y="322"/>
      <point x="912" y="319" type="curve" smooth="yes"/>
      <point x="912" y="292"/>
      <point x="862" y="277"/>
      <point x="824" y="277" type="curve" smooth="yes"/>
      <point x="586" y="277" type="line"/>
      <point x="574" y="210" type="line" smooth="yes"/>
      <point x="571" y="198"/>
      <point x="569" y="187"/>
      <point x="569" y="176" type="curve" smooth="yes"/>
      <point x="569" y="99"/>
      <point x="638" y="91"/>
      <point x="725" y="87" type="curve" smooth="yes"/>
      <point x="729" y="87"/>
      <point x="729" y="75"/>
      <point x="729" y="59" type="curve" smooth="yes"/>
      <point x="729" y="29"/>
      <point x="720" y="17"/>
      <point x="714" y="17" type="curve" smooth="yes"/>
      <point x="213" y="17" type="line" smooth="yes"/>
      <point x="210" y="17"/>
      <point x="206" y="17"/>
      <point x="206" y="35" type="curve" smooth="yes"/>
      <point x="206" y="63"/>
      <point x="222" y="88"/>
      <point x="226" y="88" type="curve" smooth="yes"/>
      <point x="304" y="88"/>
      <point x="379" y="97"/>
      <point x="408" y="223" type="curve"/>
      <point x="418" y="277" type="line"/>
      <point x="295" y="277" type="line" smooth="yes"/>
      <point x="132" y="277"/>
      <point x="104" y="292"/>
      <point x="104" y="296" type="curve" smooth="yes"/>
      <point x="104" y="313"/>
      <point x="113" y="336"/>
    </contour>
  </outline>
</glyph>
<glyph name="dieresis" format="1">
  <advance width="919"/>
  <unicode hex="00A8"/>
  <outline>
    <contour>
      <point x="392" y="871" type="move" name="_top"/>
    </contour>
    <contour>
      <point x="777" y="1299" type="curve" smooth="yes"/>
      <point x="821" y="1299"/>
      <point x="849" y="1269"/>
      <point x="849" y="1229" type="curve" smooth="yes"/>
      <point x="849" y="1169"/>
      <point x="789" y="1115"/>
      <point x="731" y="1115" type="curve" smooth="yes"/>
      <point x="688" y="1115"/>
      <point x="660" y="1143"/>
      <point x="660" y="1183" type="curve" smooth="yes"/>
      <point x="660" y="1243"/>
      <point x="719" y="1299"/>
    </contour>
    <contour>
      <point x="338" y="1299" type="curve" smooth="yes"/>
      <point x="381" y="1299"/>
      <point x="409" y="1269"/>
      <point x="409" y="1229" type="curve" smooth="yes"/>
      <point x="409" y="1169"/>
      <point x="349" y="1115"/>
      <point x="292" y="1115" type="curve" smooth="yes"/>
      <point x="247" y="1115"/>
      <point x="220" y="1143"/>
      <point x="220" y="1183" type="curve" smooth="yes"/>
      <point x="220" y="1243"/>
      <point x="278" y="1299"/>
    </contour>
  </outline>
</glyph>
<glyph name="guillemotleft" format="1">
  <advance width="838"/>
  <unicode hex="00AB"/>
  <outline>
    <contour>
      <point x="730" y="820" type="curve" smooth="yes"/>
      <point x="509" y="512" type="line"/>
      <point x="595" y="197" type="line" smooth="yes"/>
      <point x="599" y="182"/>
      <point x="601" y="170"/>
      <point x="601" y="158" type="curve" smooth="yes"/>
      <point x="601" y="148"/>
      <point x="601" y="133"/>
      <point x="578" y="133" type="curve" smooth="yes"/>
      <point x="562" y="133"/>
      <point x="560" y="158"/>
      <point x="547" y="182" type="curve" smooth="yes"/>
      <point x="377" y="507" type="line"/>
      <point x="487" y="625"/>
      <point x="642" y="883"/>
      <point x="742" y="883" type="curve" smooth="yes"/>
      <point x="755" y="883"/>
      <point x="762" y="878"/>
      <point x="762" y="873" type="curve" smooth="yes"/>
      <point x="762" y="851"/>
      <point x="739" y="832"/>
    </contour>
    <contour>
      <point x="505" y="921" type="curve" smooth="yes"/>
      <point x="505" y="794"/>
      <point x="290" y="639"/>
      <point x="198" y="510" type="curve"/>
      <point x="200" y="502" type="line"/>
      <point x="198" y="504" type="line"/>
      <point x="237" y="375"/>
      <point x="322" y="203"/>
      <point x="322" y="92" type="curve" smooth="yes"/>
      <point x="322" y="82"/>
      <point x="309" y="81"/>
      <point x="301" y="81" type="curve" smooth="yes"/>
      <point x="281" y="81"/>
      <point x="278" y="106"/>
      <point x="263" y="133" type="curve" smooth="yes"/>
      <point x="55" y="505" type="line"/>
      <point x="426" y="874" type="line" smooth="yes"/>
      <point x="446" y="894"/>
      <point x="465" y="930"/>
      <point x="484" y="930" type="curve" smooth="yes"/>
      <point x="497" y="930"/>
      <point x="505" y="926"/>
    </contour>
  </outline>
</glyph>
<glyph name="macron" format="1">
  <advance width="945"/>
  <unicode hex="00AF"/>
  <outline>
    <contour>
      <point x="496" y="891" type="move" name="_top"/>
    </contour>
    <contour>
      <point x="769" y="1035" type="line"/>
      <point x="202" y="1035" type="line"/>
      <point x="221" y="1129" type="line"/>
      <point x="788" y="1129" type="line"/>
    </contour>
  </outline>
</glyph>
<glyph name="cedilla" format="1">
  <advance width="610"/>
  <unicode hex="00B8"/>
  <outline>
    <contour>
      <point x="293" y="0" type="move" name="_bot"/>
    </contour>
    <contour>
      <point x="260" y="0" type="move" name="_bot"/>
    </contour>
    <contour>
      <point x="308" y="-152" type="line"/>
      <point x="402" y="-165"/>
      <point x="441" y="-204"/>
      <point x="441" y="-260" type="curve" smooth="yes"/>
      <point x="441" y="-374"/>
      <point x="313" y="-451"/>
      <point x="187" y="-451" type="curve" smooth="yes"/>
      <point x="150" y="-451"/>
      <point x="115" y="-443"/>
      <point x="79" y="-428" type="curve"/>
      <point x="90" y="-403" type="line"/>
      <point x="114" y="-413"/>
      <point x="135" y="-416"/>
      <point x="158" y="-416" type="curve" smooth="yes"/>
      <point x="231" y="-416"/>
      <point x="305" y="-366"/>
      <point x="305" y="-289" type="curve" smooth="yes"/>
      <point x="305" y="-224"/>
      <point x="244" y="-200"/>
      <point x="182" y="-193" type="curve"/>
      <point x="263" y="0" type="line"/>
      <point x="319" y="0" type="line"/>
    </contour>
  </outline>
</glyph>
<glyph name="ordmasculine" format="1">
  <advance width="791"/>
  <unicode hex="00BA"/>
  <outline>
    <contour>
      <point x="398" y="893" type="curve" smooth="yes"/>
      <point x="430" y="1040"/>
      <point x="520" y="1119"/>
      <point x="623" y="1119" type="curve" smooth="yes"/>
      <point x="762" y="1119"/>
      <point x="788" y="945"/>
      <point x="759" y="808" type="curve" smooth="yes"/>
      <point x="732" y="680"/>
      <point x="633" y="602"/>
      <point x="535" y="602" type="curve" smooth="yes"/>
      <point x="429" y="602"/>
      <point x="360" y="711"/>
    </contour>
    <contour>
      <point x="255" y="861" type="curve" smooth="yes"/>
      <point x="214" y="672"/>
      <point x="342" y="547"/>
      <point x="515" y="547" type="curve" smooth="yes"/>
      <point x="686" y="547"/>
      <point x="860" y="667"/>
      <point x="901" y="858" type="curve" smooth="yes"/>
      <point x="941" y="1048"/>
      <point x="818" y="1164"/>
      <point x="639" y="1164" type="curve" smooth="yes"/>
      <point x="472" y="1164"/>
      <point x="293" y="1043"/>
    </contour>
  </outline>
</glyph>
<glyph name="onehalf" format="1">
  <advance width="1831"/>
  <unicode hex="00BD"/>
  <outline>
    <contour>
      <point x="670" y="1295" type="line"/>
      <point x="660" y="1299"/>
      <point x="649" y="1301"/>
      <point x="637" y="1301" type="curve"/>
      <point x="552" y="1264"/>
      <point x="465" y="1244"/>
      <point x="378" y="1234" type="curve"/>
      <point x="370" y="1199" type="line"/>
      <point x="434" y="1169"/>
      <point x="498" y="1197"/>
      <point x="474" y="1084" type="curve" smooth="yes"/>
      <point x="384" y="663" type="line" smooth="yes"/>
      <point x="355" y="525"/>
      <point x="317" y="587"/>
      <point x="228" y="547" type="curve"/>
      <point x="222" y="512" type="line"/>
      <point x="631" y="512" type="line"/>
      <point x="641" y="548" type="line"/>
      <point x="636" y="560"/>
      <point x="604" y="558"/>
      <point x="591" y="559" type="curve" smooth="yes"/>
      <point x="514" y="564"/>
      <point x="526" y="622"/>
      <point x="539" y="685" type="curve" smooth="yes"/>
    </contour>
    <contour>
      <point x="1736" y="269" type="line"/>
      <point x="1692" y="269" type="line"/>
      <point x="1680" y="259"/>
      <point x="1672" y="247"/>
      <point x="1664" y="233" type="curve" smooth="yes"/>
      <point x="1616" y="152"/>
      <point x="1573" y="145"/>
      <point x="1492" y="145" type="curve" smooth="yes"/>
      <point x="1283" y="145" type="line"/>
      <point x="1427" y="262"/>
      <point x="1746" y="438"/>
      <point x="1784" y="621" type="curve" smooth="yes"/>
      <point x="1816" y="769"/>
      <point x="1702" y="842"/>
      <point x="1568" y="842" type="curve" smooth="yes"/>
      <point x="1444" y="842"/>
      <point x="1311" y="762"/>
      <point x="1248" y="654" type="curve"/>
      <point x="1287" y="636" type="line"/>
      <point x="1350" y="697"/>
      <point x="1442" y="761"/>
      <point x="1525" y="761" type="curve" smooth="yes"/>
      <point x="1605" y="761"/>
      <point x="1639" y="696"/>
      <point x="1623" y="620" type="curve" smooth="yes"/>
      <point x="1585" y="439"/>
      <point x="1269" y="217"/>
      <point x="1128" y="88" type="curve"/>
      <point x="1123" y="45" type="line"/>
      <point x="1174" y="46"/>
      <point x="1224" y="46"/>
      <point x="1275" y="46" type="curve" smooth="yes"/>
      <point x="1377" y="46"/>
      <point x="1479" y="45"/>
      <point x="1580" y="45" type="curve" smooth="yes"/>
      <point x="1645" y="45" type="line"/>
    </contour>
    <contour>
      <point x="526" y="-77" type="curve"/>
      <point x="741" y="153"/>
      <point x="896" y="440"/>
      <point x="1083" y="691" type="curve" smooth="yes"/>
      <point x="1260" y="927"/>
      <point x="1452" y="1155"/>
      <point x="1637" y="1386" type="curve"/>
      <point x="1614" y="1403"/>
      <point x="1583" y="1410"/>
      <point x="1552" y="1410" type="curve"/>
      <point x="1428" y="1336"/>
      <point x="1331" y="1159"/>
      <point x="1246" y="1045" type="curve" smooth="yes"/>
      <point x="534" y="91" type="line" smooth="yes"/>
      <point x="493" y="37"/>
      <point x="469" y="-24"/>
      <point x="438" y="-81" type="curve"/>
      <point x="471" y="-81" type="line" smooth="yes"/>
      <point x="489" y="-81"/>
      <point x="507" y="-81"/>
    </contour>
  </outline>
</glyph>
<glyph name="Thorn" format="1">
  <advance width="1053"/>
  <unicode hex="00DE"/>
  <outline>
    <contour>
      <point x="491" y="1037" type="line"/>
      <point x="972" y="1012"/>
      <point x="1063" y="870"/>
      <point x="1063" y="730" type="curve" smooth="yes"/>
      <point x="1063" y="596"/>
      <point x="925" y="426"/>
      <point x="538" y="426" type="curve" smooth="yes"/>
      <point x="501" y="426"/>
      <point x="493" y="444"/>
      <point x="493" y="465" type="curve" smooth="yes"/>
      <point x="493" y="482"/>
      <point x="504" y="496"/>
      <point x="521" y="496" type="curve" smooth="yes"/>
      <point x="811" y="496"/>
      <point x="882" y="648"/>
      <point x="882" y="738" type="curve" smooth="yes"/>
      <point x="882" y="824"/>
      <point x="811" y="980"/>
      <point x="492" y="980" type="curve" smooth="yes"/>
      <point x="479" y="980" type="line"/>
      <point x="313" y="217" type="line" smooth="yes"/>
      <point x="310" y="204"/>
      <point x="309" y="192"/>
      <point x="309" y="181" type="curve" smooth="yes"/>
      <point x="309" y="180" type="line"/>
      <point x="307" y="177" type="line"/>
      <point x="313" y="122"/>
      <point x="363" y="100"/>
      <point x="466" y="96" type="curve" smooth="yes"/>
      <point x="470" y="96"/>
      <point x="470" y="84"/>
      <point x="470" y="68" type="curve" smooth="yes"/>
      <point x="470" y="38"/>
      <point x="461" y="26"/>
      <point x="456" y="26" type="curve" smooth="yes"/>
      <point x="-60" y="26" type="line" smooth="yes"/>
      <point x="-63" y="26"/>
      <point x="-67" y="26"/>
      <point x="-67" y="44" type="curve" smooth="yes"/>
      <point x="-67" y="72"/>
      <point x="-51" y="97"/>
      <point x="-47" y="97" type="curve" smooth="yes"/>
      <point x="33" y="97"/>
      <point x="123" y="103"/>
      <point x="151" y="229" type="curve" smooth="yes"/>
      <point x="325" y="1015" type="line" smooth="yes"/>
      <point x="328" y="1026"/>
      <point x="329" y="1037"/>
      <point x="329" y="1047" type="curve" smooth="yes"/>
      <point x="329" y="1133"/>
      <point x="230" y="1136"/>
      <point x="164" y="1136" type="curve" smooth="yes"/>
      <point x="149" y="1136" type="line" smooth="yes"/>
      <point x="146" y="1136"/>
      <point x="145" y="1138"/>
      <point x="145" y="1164" type="curve" smooth="yes"/>
      <point x="145" y="1194"/>
      <point x="154" y="1206"/>
      <point x="160" y="1206" type="curve" smooth="yes"/>
      <point x="530" y="1206" type="line"/>
    </contour>
  </outline>
</glyph>
<glyph name="divide" format="1">
  <advance width="998"/>
  <unicode hex="00F7"/>
  <outline>
    <contour>
      <point x="121" y="565" type="curve"/>
      <point x="121" y="564" type="line"/>
      <point x="75" y="564"/>
      <point x="9" y="556"/>
      <point x="9" y="585" type="curve" smooth="yes"/>
      <point x="9" y="629"/>
      <point x="26" y="682"/>
      <point x="57" y="682" type="curve" smooth="yes"/>
      <point x="337" y="682"/>
      <point x="600" y="683"/>
      <point x="893" y="683" type="curve" smooth="yes"/>
      <point x="944" y="683"/>
      <point x="976" y="671"/>
      <point x="1004" y="659" type="curve"/>
      <point x="994" y="620"/>
      <point x="991" y="568"/>
      <point x="960" y="568" type="curve" smooth="yes"/>
      <point x="676" y="568"/>
      <point x="408" y="565"/>
    </contour>
    <contour>
      <point x="453" y="345" type="curve" smooth="yes"/>
      <point x="454" y="345" type="line" smooth="yes"/>
      <point x="500" y="345"/>
      <point x="531" y="309"/>
      <point x="531" y="265" type="curve" smooth="yes"/>
      <point x="531" y="204"/>
      <point x="469" y="142"/>
      <point x="407" y="142" type="curve" smooth="yes"/>
      <point x="361" y="142"/>
      <point x="332" y="175"/>
      <point x="332" y="220" type="curve" smooth="yes"/>
      <point x="332" y="282"/>
      <point x="392" y="345"/>
    </contour>
    <contour>
      <point x="604" y="1109" type="curve" smooth="yes"/>
      <point x="605" y="1109" type="line" smooth="yes"/>
      <point x="651" y="1109"/>
      <point x="681" y="1073"/>
      <point x="681" y="1028" type="curve" smooth="yes"/>
      <point x="681" y="969"/>
      <point x="618" y="905"/>
      <point x="557" y="905" type="curve" smooth="yes"/>
      <point x="512" y="905"/>
      <point x="481" y="938"/>
      <point x="481" y="981" type="curve" smooth="yes"/>
      <point x="481" y="1043"/>
      <point x="542" y="1109"/>
    </contour>
  </outline>
</glyph>
<glyph name="florin" format="1">
  <advance width="770"/>
  <unicode hex="0192"/>
  <outline>
    <contour>
      <point x="13" y="-292" type="line"/>
      <point x="54" y="-234"/>
      <point x="124" y="-62"/>
      <point x="203" y="282" type="curve"/>
      <point x="308" y="727" type="line"/>
      <point x="104" y="727" type="line"/>
      <point x="125" y="817" type="line"/>
      <point x="329" y="817" type="line"/>
      <point x="357" y="949" type="line" smooth="yes"/>
      <point x="402" y="1161"/>
      <point x="498" y="1301"/>
      <point x="697" y="1301" type="curve" smooth="yes"/>
      <point x="767" y="1301"/>
      <point x="882" y="1268"/>
      <point x="882" y="1147" type="curve" smooth="yes"/>
      <point x="882" y="1111"/>
      <point x="851" y="1076"/>
      <point x="800" y="1076" type="curve" smooth="yes"/>
      <point x="714" y="1076"/>
      <point x="726" y="1218"/>
      <point x="634" y="1218" type="curve" smooth="yes"/>
      <point x="542" y="1218"/>
      <point x="481" y="1086"/>
      <point x="481" y="951" type="curve" smooth="yes"/>
      <point x="481" y="905"/>
      <point x="488" y="859"/>
      <point x="503" y="817" type="curve"/>
      <point x="744" y="817" type="line"/>
      <point x="722" y="727" type="line"/>
      <point x="483" y="727" type="line"/>
      <point x="390" y="337" type="line" smooth="yes"/>
      <point x="321" y="46"/>
      <point x="286" y="-229"/>
      <point x="64" y="-316" type="curve"/>
    </contour>
  </outline>
</glyph>
<glyph name="caron" format="1">
  <advance width="825"/>
  <unicode hex="02C7"/>
  <outline>
    <contour>
      <point x="412" y="872" type="move" name="_top"/>
    </contour>
    <contour>
      <point x="278" y="1465" type="line"/>
      <point x="456" y="1195" type="line"/>
      <point x="762" y="1461" type="line"/>
      <point x="779" y="1445" type="line"/>
      <point x="709" y="1344"/>
      <point x="537" y="1106"/>
      <point x="513" y="1074" type="curve" smooth="yes"/>
      <point x="490" y="1044"/>
      <point x="456" y="1017"/>
      <point x="427" y="1017" type="curve" smooth="yes"/>
      <point x="399" y="1017"/>
      <point x="381" y="1041"/>
      <point x="371" y="1070" type="curve" smooth="yes"/>
      <point x="360" y="1102"/>
      <point x="284" y="1360"/>
      <point x="259" y="1453" type="curve"/>
    </contour>
  </outline>
</glyph>
<glyph name="uni0326" format="1">
  <advance width="659"/>
  <unicode hex="0326"/>
  <outline>
    <contour>
      <point x="172" y="-272" type="curve" smooth="yes"/>
      <point x="172" y="-184"/>
      <point x="254" y="-108"/>
      <point x="343" y="-108" type="curve" smooth="yes"/>
      <point x="405" y="-108"/>
      <point x="456" y="-132"/>
      <point x="456" y="-231" type="curve" smooth="yes"/>
      <point x="456" y="-457"/>
      <point x="257" y="-561"/>
      <point x="170" y="-561" type="curve" smooth="yes"/>
      <point x="154" y="-561"/>
      <point x="153" y="-560"/>
      <point x="153" y="-555" type="curve" smooth="yes"/>
      <point x="153" y="-502"/>
      <point x="279" y="-552"/>
      <point x="311" y="-390" type="curve" smooth="yes"/>
      <point x="315" y="-370" type="line"/>
      <point x="294" y="-370" type="line" smooth="yes"/>
      <point x="207" y="-370"/>
      <point x="172" y="-328"/>
    </contour>
  </outline>
</glyph>
<glyph name="quoteright" format="1">
  <advance width="488"/>
  <unicode hex="2019"/>
  <outline>
    <contour>
      <point x="210" y="783" type="curve"/>
      <point x="142" y="869" type="line"/>
      <point x="204" y="910"/>
      <point x="242" y="929"/>
      <point x="242" y="992" type="curve" smooth="yes"/>
      <point x="242" y="1030"/>
      <point x="194" y="1103"/>
      <point x="194" y="1140" type="curve" smooth="yes"/>
      <point x="194" y="1179"/>
      <point x="234" y="1217"/>
      <point x="288" y="1217" type="curve" smooth="yes"/>
      <point x="362" y="1217"/>
      <point x="416" y="1154"/>
      <point x="416" y="1063" type="curve" smooth="yes"/>
      <point x="416" y="951"/>
      <point x="309" y="843"/>
    </contour>
  </outline>
</glyph>
<glyph name="bullet" format="1">
  <advance width="742"/>
  <unicode hex="2022"/>
  <outline>
    <contour>
      <point x="414" y="835" type="curve" smooth="yes"/>
      <point x="537" y="835"/>
      <point x="608" y="746"/>
      <point x="608" y="634" type="curve" smooth="yes"/>
      <point x="608" y="481"/>
      <point x="479" y="332"/>
      <point x="309" y="332" type="curve" smooth="yes"/>
      <point x="182" y="332"/>
      <point x="113" y="420"/>
      <point x="113" y="529" type="curve" smooth="yes"/>
      <point x="113" y="683"/>
      <point x="246" y="835"/>
    </contour>
  </outline>
</glyph>
<glyph name="guilsinglright" format="1">
  <advance width="567"/>
  <unicode hex="203A"/>
  <outline>
    <contour>
      <point x="339" y="532" type="curve" smooth="yes"/>
      <point x="339" y="655"/>
      <point x="209" y="818"/>
      <point x="204" y="942" type="curve" smooth="yes"/>
      <point x="204" y="955"/>
      <point x="229" y="964"/>
      <point x="235" y="956" type="curve" smooth="yes"/>
      <point x="334" y="835"/>
      <point x="401" y="674"/>
      <point x="480" y="536" type="curve"/>
      <point x="124" y="170" type="line" smooth="yes"/>
      <point x="100" y="146"/>
      <point x="81" y="106"/>
      <point x="51" y="106" type="curve" smooth="yes"/>
      <point x="44" y="106"/>
      <point x="41" y="109"/>
      <point x="38" y="112" type="curve"/>
      <point x="38" y="115" type="line"/>
      <point x="107" y="253"/>
      <point x="339" y="380"/>
    </contour>
  </outline>
</glyph>
<glyph name="Euro" format="1">
  <advance width="1137"/>
  <unicode hex="20AC"/>
  <outline>
    <contour>
      <point x="237" y="772" type="line"/>
      <point x="335" y="1041"/>
      <point x="554" y="1273"/>
      <point x="834" y="1273" type="curve" smooth="yes"/>
      <point x="939" y="1273"/>
      <point x="1056" y="1249"/>
      <point x="1110" y="1169" type="curve" smooth="yes"/>
      <point x="1146" y="1115"/>
      <point x="1124" y="1029"/>
      <point x="1126" y="957" type="curve"/>
      <point x="1035" y="957" type="line"/>
      <point x="1013" y="1133"/>
      <point x="933" y="1230"/>
      <point x="799" y="1230" type="curve" smooth="yes"/>
      <point x="634" y="1230"/>
      <point x="488" y="1060"/>
      <point x="406" y="794" type="curve"/>
      <point x="399" y="772" type="line"/>
      <point x="605" y="772" type="line" smooth="yes"/>
      <point x="716" y="772"/>
      <point x="799" y="766"/>
      <point x="866" y="754" type="curve"/>
      <point x="857" y="739"/>
      <point x="843" y="716"/>
      <point x="803" y="716" type="curve" smooth="yes"/>
      <point x="384" y="716" type="line"/>
      <point x="371" y="662" type="line" smooth="yes"/>
      <point x="362" y="623"/>
      <point x="358" y="590"/>
      <point x="353" y="553" type="curve"/>
      <point x="549" y="553" type="line" smooth="yes"/>
      <point x="655" y="553"/>
      <point x="733" y="548"/>
      <point x="797" y="537" type="curve"/>
      <point x="782" y="522"/>
      <point x="775" y="497"/>
      <point x="732" y="497" type="curve" smooth="yes"/>
      <point x="346" y="497" type="line"/>
      <point x="344" y="471"/>
      <point x="343" y="444"/>
      <point x="343" y="418" type="curve" smooth="yes"/>
      <point x="343" y="211"/>
      <point x="416" y="46"/>
      <point x="591" y="46" type="curve" smooth="yes"/>
      <point x="721" y="46"/>
      <point x="835" y="141"/>
      <point x="891" y="221" type="curve"/>
      <point x="966" y="199" type="line"/>
      <point x="891" y="102"/>
      <point x="742" y="-6"/>
      <point x="560" y="-6" type="curve" smooth="yes"/>
      <point x="310" y="-6"/>
      <point x="176" y="177"/>
      <point x="176" y="438" type="curve" smooth="yes"/>
      <point x="176" y="457"/>
      <point x="177" y="477"/>
      <point x="178" y="496" type="curve"/>
      <point x="108" y="496" type="line" smooth="yes"/>
      <point x="64" y="496"/>
      <point x="44" y="500"/>
      <point x="38" y="503" type="curve"/>
      <point x="47" y="525"/>
      <point x="59" y="552"/>
      <point x="101" y="552" type="curve" smooth="yes"/>
      <point x="181" y="552" type="line"/>
      <point x="188" y="601"/>
      <point x="194" y="646"/>
      <point x="211" y="694" type="curve"/>
      <point x="218" y="716" type="line"/>
      <point x="122" y="716" type="line"/>
      <point x="98" y="727"/>
      <point x="97" y="733"/>
      <point x="97" y="742" type="curve" smooth="yes"/>
      <point x="97" y="766"/>
      <point x="98" y="772"/>
      <point x="178" y="772" type="curve" smooth="yes"/>
    </contour>
  </outline>
</glyph>
